<?xml version="1.0" encoding="UTF-8"?>
<svg version="1.1" xmlns="http://www.w3.org/2000/svg" width="512" height="512">
<path d="M0 0 C9.64164656 5.66066492 14.55585379 12.88779797 17.4375 23.5625 C17.95354035 28.10326809 17.94934801 32.59016137 17.90625 37.15625 C17.91329956 38.42416382 17.92034912 39.69207764 17.9276123 40.99841309 C17.95321535 45.69852477 17.94413051 50.39807443 17.93243408 55.09820557 C17.92284728 59.72196178 17.94304225 64.34502757 17.96875 68.96875 C17.95743042 70.16802124 17.94611084 71.36729248 17.93444824 72.60290527 C17.99949822 83.54246463 20.4018159 92.60953968 28.09375 100.6171875 C36.83163169 107.8696293 46.84745203 108.71612393 57.75386047 108.69621277 C59.13044737 108.6996111 59.13044737 108.6996111 60.5348441 108.70307809 C63.59917006 108.70939037 66.66345148 108.70859051 69.7277832 108.70776367 C71.9293117 108.71075689 74.13083966 108.71415979 76.33236694 108.71794128 C82.30557667 108.72676882 88.27877207 108.72911887 94.2519877 108.72975707 C97.98572898 108.73046826 101.71946663 108.7326039 105.45320702 108.73525429 C117.81213879 108.74402636 130.17106291 108.74867451 142.52999768 108.74792381 C143.52823111 108.74786388 143.52823111 108.74786388 144.54663086 108.74780273 C145.54609092 108.74774141 145.54609092 108.74774141 146.5657421 108.74767885 C157.36088886 108.74727252 168.15600073 108.75684038 178.9511374 108.7709411 C190.0503906 108.78532403 201.14962942 108.79202733 212.24889249 108.79134732 C218.4743021 108.7910926 224.6996722 108.79392981 230.92507362 108.80452538 C236.78145791 108.81422095 242.63776503 108.81427548 248.49415207 108.80700874 C250.63949763 108.80596473 252.78484804 108.80831486 254.93018532 108.8143692 C257.8669431 108.82211806 260.80343627 108.81742518 263.7401886 108.80973816 C264.58174871 108.81488172 265.42330883 108.82002529 266.29037076 108.82532471 C277.0852764 108.76322039 287.10349212 106.84727592 295.1875 99.3125 C301.04223525 93.09685642 303.54081562 86.30184531 303.59521484 77.85107422 C303.60547699 76.70242889 303.61573914 75.55378357 303.62631226 74.37033081 C303.63361359 73.13179352 303.64091492 71.89325623 303.6484375 70.6171875 C303.66932397 68.660616 303.6902281 66.70404452 303.71213722 64.74748421 C303.76511158 59.93328825 303.80936074 55.11908551 303.83886719 50.3046875 C303.85586278 47.60346462 303.88065332 44.90252036 303.91372681 42.20144653 C303.94447059 39.66386209 303.96406355 37.12611014 303.97079468 34.58834839 C304.12513264 23.71104021 305.73008536 14.63445452 313.4375 6.5625 C320.50129963 0.2309235 327.33329906 -3.01034104 336.8125 -2.875 C337.93676392 -2.86255249 337.93676392 -2.86255249 339.08374023 -2.84985352 C348.1027221 -2.57465166 354.06671654 0.51388272 360.6484375 6.63671875 C366.64963346 13.09652139 369.67542714 20.19201923 369.7121582 29.04833984 C369.72169022 30.31761322 369.73122223 31.5868866 369.74104309 32.8946228 C369.74078138 34.27089465 369.73984297 35.64716651 369.73828125 37.0234375 C369.74217657 38.45626955 369.74651293 39.88910047 369.75126648 41.32192993 C369.75871614 44.32614883 369.75844974 47.33025025 369.75317383 50.33447266 C369.7474274 54.13759937 369.76419781 57.94023135 369.7875185 61.7432766 C369.80244833 64.7069061 369.80310106 67.67042233 369.80000877 70.63408279 C369.80051395 72.03315828 369.80559602 73.43224154 369.81582069 74.83127975 C369.89766647 87.61249249 368.64603663 100.49326317 363.625 112.375 C363.36710693 112.98553223 363.10921387 113.59606445 362.84350586 114.22509766 C358.81068212 123.57341563 354.00558564 131.78913679 347.4375 139.5625 C346.78136719 140.36429688 346.12523437 141.16609375 345.44921875 141.9921875 C330.67363527 159.33391436 309.86203196 170.0455623 287.4375 173.5625 C283.88247908 173.82467379 280.34606106 173.84166982 276.78245544 173.82992554 C275.75685062 173.83445665 274.7312458 173.83898776 273.67456204 173.84365618 C270.26273093 173.85624305 266.85106063 173.85468349 263.43920898 173.85302734 C260.98258765 173.85901625 258.5259682 173.86582263 256.0693512 173.87338257 C250.10260881 173.88918601 244.13592883 173.89548949 238.16917133 173.89660732 C233.31304745 173.89756082 228.45693651 173.9016861 223.60081673 173.90800858 C209.80095076 173.92560687 196.00111578 173.93484994 182.20123851 173.93334763 C181.45863595 173.93326772 180.7160334 173.9331878 179.95092773 173.93310547 C178.83564679 173.93298283 178.83564679 173.93298283 177.69783492 173.93285771 C165.66276259 173.93204575 153.6278157 173.95116441 141.59277963 173.9793822 C129.20404612 174.00819752 116.81537359 174.02191768 104.42660576 174.02019465 C97.48389354 174.01953361 90.54131273 174.02489922 83.59863091 174.04655075 C77.06254152 174.06680518 70.52668054 174.06600103 63.99056053 174.05151749 C61.60304101 174.04943838 59.21550382 174.05407613 56.82801437 174.0662384 C29.6509276 174.19562241 6.63445971 168.50120511 -14.5625 150.5625 C-15.15417969 150.11648438 -15.74585937 149.67046875 -16.35546875 149.2109375 C-34.07623289 135.48892061 -43.89815837 111.7670951 -47.13269043 90.21315002 C-47.84416249 84.17015874 -47.8676862 78.16068871 -47.86328125 72.08203125 C-47.86718379 70.73451103 -47.87152155 69.38699201 -47.87626648 68.03947449 C-47.88365485 65.24022395 -47.88348986 62.44109974 -47.87817383 59.6418457 C-47.87235856 56.08157781 -47.88939523 52.52182668 -47.9125185 48.96164417 C-47.92734432 46.18785154 -47.92811614 43.41418131 -47.92500877 40.64035606 C-47.92576036 38.69851253 -47.93953884 36.75668775 -47.95368958 34.81489563 C-47.89658746 23.82705407 -46.3500176 14.71834614 -38.5625 6.5625 C-27.76587156 -3.11496573 -13.44123217 -6.15628954 0 0 Z " fill="#FF7565" transform="translate(95.5625,290.4375)"/>
<path d="M0 0 C1.12426392 0.01244751 1.12426392 0.01244751 2.27124023 0.02514648 C11.28808174 0.30028303 17.26091604 3.38592372 23.8359375 9.515625 C30.74139531 16.93371505 32.94310491 24.8061751 32.86550903 34.79612732 C32.86721788 35.61065166 32.86892673 36.425176 32.87068737 37.2643829 C32.87396747 39.9789993 32.86300307 42.69336556 32.85205078 45.40795898 C32.85148635 47.35970555 32.85180386 49.31145254 32.85293579 51.26319885 C32.85350905 56.5519092 32.84175905 61.84052862 32.82778788 67.12921786 C32.81527606 72.65987609 32.81410966 78.19053646 32.81173706 83.72120667 C32.80552363 94.18995356 32.78911463 104.65865862 32.76903808 115.12738711 C32.74667485 127.04751026 32.73568458 138.96763543 32.72564721 150.88777435 C32.70474831 175.40437274 32.66957495 199.92093403 32.625 224.4375 C35.62711303 222.39892747 38.62628581 220.35606819 41.625 218.3125 C42.88376953 217.45785156 42.88376953 217.45785156 44.16796875 216.5859375 C49.42524379 212.99957933 54.56914886 209.30218952 59.625 205.4375 C67.01710562 199.81686028 74.62871563 194.56455301 82.3203125 189.36328125 C86.41554002 186.59381491 90.44134617 183.73690912 94.421875 180.8046875 C102.74519016 175.63950965 111.11702064 175.10398256 120.625 176.4375 C130.22426118 179.27218115 136.98462241 185.23231092 142 193.78125 C145.92520828 202.17683438 145.87960713 211.34153525 143.1875 220.125 C137.62291976 233.2159108 125.52894639 240.01255798 114.21630859 247.66601562 C110.25820703 250.37187439 106.37739486 253.18023192 102.5 256 C101.76668457 256.53141602 101.03336914 257.06283203 100.27783203 257.61035156 C98.0593493 259.21820241 95.84217362 260.82784462 93.625 262.4375 C84.12759436 269.32378676 74.60947999 276.17535347 65.01269531 282.92260742 C59.91570821 286.51153022 54.858795 290.15274986 49.8125 293.8125 C46.75220599 296.02390204 43.68881345 298.23097778 40.625 300.4375 C39.78437012 301.04480957 38.94374023 301.65211914 38.07763672 302.27783203 C32.32175867 306.42451674 26.52224287 310.4940428 20.625 314.4375 C20.04024902 314.83179199 19.45549805 315.22608398 18.85302734 315.63232422 C10.39977319 321.15935017 1.44184189 322.05533897 -8.375 320.4375 C-18.6603952 317.4638751 -27.53683837 309.49109313 -36.02392578 303.1796875 C-39.8044654 300.37824091 -43.62090312 297.62701084 -47.4375 294.875 C-48.18209473 294.33673584 -48.92668945 293.79847168 -49.69384766 293.24389648 C-55.42607672 289.10506022 -61.19727924 285.0236306 -66.98071289 280.95678711 C-72.90479108 276.78494926 -78.77740075 272.54436623 -84.64453125 268.29296875 C-89.69582588 264.63754137 -94.77469572 261.02416941 -99.875 257.4375 C-108.12586697 251.63044103 -116.33377675 245.76621063 -124.48242188 239.81640625 C-126.08169129 238.65120067 -127.68846267 237.49630215 -129.296875 236.34375 C-137.516874 230.27529436 -142.51678029 223.62673808 -144.375 213.4375 C-145.35320356 204.71518493 -143.74981607 196.44302658 -138.6875 189.1875 C-133.57385325 182.92201698 -126.56213411 177.48985938 -118.4128418 176.10375977 C-100.48673421 174.59238962 -89.47469904 183.51243301 -75.67431641 193.74707031 C-72.11289857 196.36538175 -68.49523922 198.90147341 -64.875 201.4375 C-58.01778878 206.25525427 -51.21456212 211.14437668 -44.4375 216.07421875 C-43.73238281 216.58597656 -43.02726562 217.09773437 -42.30078125 217.625 C-41.68630127 218.07230469 -41.07182129 218.51960937 -40.4387207 218.98046875 C-37.78613205 220.85325345 -35.07882931 222.63972762 -32.375 224.4375 C-32.37776538 223.43143267 -32.38053076 222.42536533 -32.38337994 221.38881111 C-32.45002265 196.89215745 -32.49929821 172.39551557 -32.53043652 147.89879036 C-32.54589558 136.05228577 -32.5669668 124.20584112 -32.60131836 112.359375 C-32.63125005 102.03220862 -32.65058199 91.70508567 -32.65726548 81.37787712 C-32.66117133 75.91132918 -32.67033075 70.44490544 -32.69219017 64.97839737 C-32.7126148 59.82877256 -32.7188217 54.67932264 -32.71432304 49.52966118 C-32.71514557 47.64393474 -32.72107546 45.75820221 -32.73261642 43.87251091 C-32.80803662 30.90914692 -32.8630411 19.3742998 -23.375 9.4375 C-16.31120037 3.1059235 -9.47920094 -0.13534104 0 0 Z " fill="#FF8A64" transform="translate(256.375,47.5625)"/>
</svg>
